<svg xmlns="http://www.w3.org/2000/svg" xmlns:xlink="http://www.w3.org/1999/xlink" width="128" zoomAndPan="magnify" viewBox="0 0 96 96" height="128" preserveAspectRatio="xMidYMid meet" xmlns:v="https://vecta.io/nano"><style><![CDATA[.B{clip-rule:nonzero}]]></style><defs><clipPath id="A"><path d="M2.188 2.188h91.625v91.625H2.188zm0 0" class="B"/></clipPath><clipPath id="B"><path d="M48 2.188C22.699 2.188 2.188 22.699 2.188 48S22.699 93.813 48 93.813 93.813 73.301 93.813 48 73.301 2.188 48 2.188zm0 0" class="B"/></clipPath><clipPath id="C"><path d="M14.141 10.438h67.43V36h-67.43zm0 0" class="B"/></clipPath><clipPath id="D"><path d="M14.141 30h67.43v44.766h-67.43zm0 0" class="B"/></clipPath><clipPath id="E"><path d="M14.141 30h67.43v26h-67.43zm0 0" class="B"/></clipPath><clipPath id="F"><path d="M37.059 8.316h21.703v45.73H37.059zm0 0" class="B"/></clipPath><clipPath id="G"><path d="M37.059 8.316H47v45.73h-9.941zm0 0" class="B"/></clipPath><path id="H" d="M39.709 66.13c-.418 0-.789-.082-1.109-.25a1.93 1.93 0 0 1-.75-.781c-.18-.352-.266-.789-.266-1.312 0-.508.086-.937.266-1.281.188-.352.438-.613.75-.781.32-.176.691-.266 1.109-.266.438 0 .805.086 1.109.25.313.168.535.43.672.781l-.672.406h-.062c-.105-.238-.242-.41-.406-.516s-.383-.156-.641-.156c-.375 0-.672.125-.891.375-.211.25-.312.648-.312 1.188s.102.938.313 1.188c.219.25.516.375.891.375.594 0 .957-.285 1.094-.859h.078l.656.344c-.125.438-.34.766-.641.984-.305.211-.699.313-1.187.313zm0 0"/><path id="I" d="M44.171 66.13c-.418 0-.789-.082-1.109-.25-.312-.164-.562-.426-.75-.781-.18-.352-.266-.789-.266-1.312s.086-.953.266-1.297c.188-.352.438-.613.75-.781.32-.164.691-.25 1.109-.25s.781.086 1.094.25c.32.168.57.43.75.781.176.344.266.777.266 1.297s-.09.961-.266 1.313-.43.617-.75.781c-.312.168-.68.25-1.094.25zm0-.781c.383 0 .676-.117.875-.359.207-.25.313-.648.313-1.203 0-.539-.105-.937-.312-1.187-.199-.25-.492-.375-.875-.375s-.684.125-.891.375-.312.648-.312 1.188c0 .555.102.953.313 1.203.207.242.504.359.891.359zm0 0"/><path id="J" d="M48.114 66.067h-.875V61.52h1.031l1.828 2.922h.078V61.52h.859v4.547h-.922l-1.922-3.125h-.078zm0 0"/></defs><g clip-path="url(#A)"><g clip-path="url(#B)"><path fill="#c0eaff" d="M2.188 2.188h91.625v91.625H2.188zm0 0"/></g></g><g clip-path="url(#C)"><path fill="#ff5757" d="M17.215 35.211c-1.02 0-1.922-.672-2.211-1.652s.098-2.031.953-2.59l30.781-20.008c.762-.496 1.75-.496 2.516 0l30.777 20.008c.855.559 1.246 1.609.953 2.59s-1.191 1.652-2.211 1.652zm0 0"/></g><g clip-path="url(#D)"><path fill="#ff5757" d="M17.215 30.594a2.31 2.31 0 0 0-2.309 2.309v40.012a2.31 2.31 0 0 0 2.309 2.309h61.559a2.31 2.31 0 0 0 2.309-2.309V32.902a2.31 2.31 0 0 0-2.309-2.309zm0 0"/></g><g clip-path="url(#E)"><path fill="#fafafa" d="M17.215 30.594a2.31 2.31 0 0 0-1.258 4.246l30.781 20.004c.762.5 1.75.5 2.516 0L80.031 34.84a2.31 2.31 0 0 0-1.258-4.246zm0 0"/></g><g clip-path="url(#F)"><path fill="#fedd2b" d="M53.961 8.793l-4.605 12.426 9.406-1.453-21.703 34.273 8.066-22.625-6.723.875 5.957-23.496zm0 0"/></g><g clip-path="url(#G)"><path fill="#f8cf29" d="M44.359 8.793h1.727l-7.684 23.496zm-7.301 45.246l9.797-22.625h-1.73zm0 0"/></g><g fill="#fff"><path d="M20.028 66.13a3.11 3.11 0 0 1-.844-.109 2.12 2.12 0 0 1-.609-.312 1.31 1.31 0 0 1-.375-.422l.484-.594h.078a1.75 1.75 0 0 0 .531.484 1.47 1.47 0 0 0 .734.172c.238 0 .422-.047.547-.141.125-.102.188-.242.188-.422a.6.6 0 0 0-.062-.281.56.56 0 0 0-.203-.187c-.086-.051-.203-.094-.359-.125l-.594-.141c-.406-.094-.711-.242-.906-.453-.199-.219-.297-.504-.297-.859 0-.25.063-.473.188-.672a1.17 1.17 0 0 1 .547-.453 2.35 2.35 0 0 1 .891-.156c.352 0 .656.047.906.141a1.54 1.54 0 0 1 .641.422l-.453.609h-.078a1.18 1.18 0 0 0-.437-.297 1.48 1.48 0 0 0-.578-.109c-.242 0-.43.043-.562.125a.41.41 0 0 0-.187.359c0 .148.039.262.125.344.094.086.254.152.484.203l.594.125c.438.094.754.258.953.484.195.219.297.508.297.859 0 .281-.062.531-.187.75a1.13 1.13 0 0 1-.547.484c-.242.113-.543.172-.906.172zm3.314-.063h-.828V61.52h1.172l1.156 3.344h.063l1.141-3.344h1.156v4.547h-.859v-3l-.078-.016-1.047 3.016h-.75l-1.047-3.016-.078.016zm8.091-4.547v.75H30.12v3.797h-.891V62.27h-1.312v-.75zm2.475 0c.332 0 .613.063.844.188a1.18 1.18 0 0 1 .516.5c.125.211.188.453.188.734s-.062.531-.187.75a1.16 1.16 0 0 1-.516.5c-.23.117-.512.172-.844.172h-.859v1.703h-.891V61.52zm-.109 2.141c.5 0 .75-.238.75-.719s-.25-.719-.75-.719h-.75v1.438zm0 0"/><use xlink:href="#H"/><use xlink:href="#I"/><use xlink:href="#J"/><use xlink:href="#J" x="4.988"/><path d="M58.105 64.067v1.25h2.172v.75h-3.062V61.52h3.016v.75h-2.125v1.063h1.859v.734zm0 0"/><use xlink:href="#H" x="23.308"/><path d="M68.637 61.52v.75h-1.312v3.797h-.891V62.27h-1.312v-.75zm0 0"/><use xlink:href="#I" x="27.08"/><path d="M74.319 66.067V61.52h1.828c.469 0 .82.109 1.063.328.238.211.359.508.359.891 0 .281-.074.512-.219.688-.137.168-.344.297-.625.391v.078c.145.063.258.156.344.281.094.117.18.293.266.531l.453 1.359h-.922l-.453-1.359c-.043-.133-.094-.238-.156-.312-.055-.082-.125-.141-.219-.172-.086-.031-.199-.047-.344-.047h-.484v1.891zm1.719-2.609c.438 0 .656-.203.656-.609 0-.414-.219-.625-.656-.625h-.828v1.234zm0 0"/></g></svg>